# xmcd
#
# Track frame offsets: 
#        150
#        23671
#        46099
#        64943
#        90196
#        115950
#        128908
#        147976
#
# Disc length: 2260 seconds
#
# Revision: 0
# Processed by: cddbd v1.5.2PL0 Copyright (c) Steve Scherf et al.
# Submitted via: ExactAudioCopyFreeDBPlugin 1.0
#
DISCID=6308d208
DTITLE=Hilary Woods - Colt
DYEAR=2018
DGENRE=No, thanks.
TTITLE0=Inhaler
TTITLE1=Prodigal dog
TTITLE2=Take him in
TTITLE3=Kith
TTITLE4=Jesus said
TTITLE5=Sever
TTITLE6=Black rainbow
TTITLE7=Limbs
EXTD=
EXTT0=
EXTT1=
EXTT2=
EXTT3=
EXTT4=
EXTT5=
EXTT6=
EXTT7=
PLAYORDER=
